<svg xmlns="http://www.w3.org/2000/svg" xmlns:xlink="http://www.w3.org/1999/xlink" viewBox="0,0,256,256" width="100px" height="100px" fill-rule="nonzero"><g fill="none" fill-rule="nonzero" stroke="none" stroke-width="1" stroke-linecap="butt" stroke-linejoin="miter" stroke-miterlimit="10" stroke-dasharray="" stroke-dashoffset="0" font-family="none" font-weight="none" font-size="none" text-anchor="none" style="mix-blend-mode: normal"><g transform="scale(2.56,2.56)"><path d="M32.5,93c-11.855,0 -21.5,-9.645 -21.5,-21.5v-39c0,-11.855 9.645,-21.5 21.5,-21.5h39c11.855,0 21.5,9.645 21.5,21.5v39c0,11.855 -9.645,21.5 -21.5,21.5z" fill="#000000" opacity="0.35"></path><path d="M30.5,91c-11.855,0 -21.5,-9.645 -21.5,-21.5v-39c0,-11.855 9.645,-21.5 21.5,-21.5h39c11.855,0 21.5,9.645 21.5,21.5v39c0,11.855 -9.645,21.5 -21.5,21.5z" fill="#f2f2f2"></path><path d="M69.5,84.5h-39c-8.284,0 -15,-6.716 -15,-15v-39c0,-8.284 6.716,-15 15,-15h39c8.284,0 15,6.716 15,15v39c0,8.284 -6.716,15 -15,15z" fill="#48acf0"></path><path d="M69.5,86h-39c-9.098,0 -16.5,-7.402 -16.5,-16.5v-39c0,-9.098 7.402,-16.5 16.5,-16.5h39c9.098,0 16.5,7.402 16.5,16.5v39c0,9.098 -7.402,16.5 -16.5,16.5zM30.5,17c-7.444,0 -13.5,6.056 -13.5,13.5v39c0,7.444 6.056,13.5 13.5,13.5h39c7.444,0 13.5,-6.056 13.5,-13.5v-39c0,-7.444 -6.056,-13.5 -13.5,-13.5z" fill="#191919"></path><g fill="#f2f2f2"><path d="M49.995,23c-7.334,0 -8.254,0.032 -11.134,0.163c-2.875,0.132 -4.837,0.587 -6.554,1.255c-1.776,0.69 -3.283,1.612 -4.783,3.114c-1.502,1.501 -2.425,3.007 -3.117,4.783c-0.669,1.718 -1.125,3.68 -1.255,6.554c-0.129,2.88 -0.163,3.801 -0.163,11.135c0,7.334 0.033,8.251 0.163,11.131c0.132,2.875 0.587,4.837 1.255,6.554c0.69,1.776 1.613,3.283 3.114,4.783c1.5,1.502 3.007,2.427 4.782,3.117c1.718,0.668 3.681,1.123 6.555,1.255c2.88,0.131 3.8,0.163 11.133,0.163c7.334,0 8.252,-0.032 11.132,-0.163c2.875,-0.132 4.839,-0.587 6.557,-1.255c1.775,-0.69 3.28,-1.615 4.78,-3.117c1.502,-1.501 2.425,-3.007 3.117,-4.783c0.664,-1.718 1.119,-3.68 1.255,-6.554c0.129,-2.88 0.163,-3.798 0.163,-11.132c0,-7.334 -0.034,-8.254 -0.163,-11.134c-0.135,-2.875 -0.591,-4.837 -1.255,-6.554c-0.692,-1.776 -1.615,-3.283 -3.117,-4.783c-1.502,-1.502 -3.004,-2.425 -4.782,-3.114c-1.721,-0.668 -3.685,-1.123 -6.559,-1.255c-2.879,-0.131 -3.796,-0.163 -11.132,-0.163zM47.573,27.866c0.719,-0.001 1.521,0 2.422,0c7.21,0 8.064,0.026 10.911,0.155c2.633,0.12 4.062,0.56 5.014,0.93c1.26,0.489 2.159,1.074 3.103,2.02c0.945,0.945 1.53,1.845 2.021,3.105c0.37,0.951 0.81,2.38 0.93,5.012c0.129,2.847 0.158,3.702 0.158,10.908c0,7.206 -0.028,8.062 -0.158,10.908c-0.12,2.633 -0.56,4.062 -0.93,5.012c-0.489,1.26 -1.076,2.157 -2.021,3.102c-0.945,0.945 -1.842,1.53 -3.103,2.02c-0.951,0.371 -2.381,0.81 -5.014,0.93c-2.847,0.129 -3.702,0.158 -10.911,0.158c-7.21,0 -8.065,-0.028 -10.911,-0.158c-2.633,-0.122 -4.062,-0.561 -5.014,-0.931c-1.26,-0.489 -2.16,-1.075 -3.105,-2.02c-0.945,-0.945 -1.53,-1.843 -2.021,-3.104c-0.37,-0.951 -0.81,-2.38 -0.93,-5.012c-0.129,-2.847 -0.155,-3.702 -0.155,-10.913c0,-7.211 0.026,-8.062 0.155,-10.908c0.12,-2.633 0.56,-4.062 0.93,-5.014c0.489,-1.26 1.076,-2.16 2.021,-3.105c0.945,-0.945 1.845,-1.53 3.105,-2.021c0.952,-0.371 2.381,-0.81 5.014,-0.931c2.491,-0.113 3.456,-0.146 8.489,-0.152zM64.409,32.35c-1.789,0 -3.24,1.45 -3.24,3.239c0,1.789 1.451,3.24 3.24,3.24c1.789,0 3.24,-1.451 3.24,-3.24c0,-1.789 -1.451,-3.24 -3.24,-3.24zM49.995,36.136c-7.658,0 -13.867,6.209 -13.867,13.867c0,7.658 6.209,13.864 13.867,13.864c7.658,0 13.865,-6.206 13.865,-13.864c0,-7.658 -6.207,-13.867 -13.865,-13.867zM49.995,41.002c4.971,0 9.001,4.03 9.001,9.001c0,4.971 -4.03,9.001 -9.001,9.001c-4.971,0 -9.001,-4.03 -9.001,-9.001c0,-4.971 4.03,-9.001 9.001,-9.001z"></path></g></g></g></svg>