<svg xmlns="http://www.w3.org/2000/svg" xmlns:xlink="http://www.w3.org/1999/xlink" viewBox="0,0,256,256" width="100px" height="100px" fill-rule="nonzero"><g fill="none" fill-rule="nonzero" stroke="none" stroke-width="1" stroke-linecap="butt" stroke-linejoin="miter" stroke-miterlimit="10" stroke-dasharray="" stroke-dashoffset="0" font-family="none" font-weight="none" font-size="none" text-anchor="none" style="mix-blend-mode: normal"><g transform="scale(2.56,2.56)"><path d="M26.5,93c-8.547,0 -15.5,-6.953 -15.5,-15.5v-51c0,-8.547 6.953,-15.5 15.5,-15.5h51c8.547,0 15.5,6.953 15.5,15.5v51c0,8.547 -6.953,15.5 -15.5,15.5z" fill="#000000" opacity="0.35"></path><path d="M24.5,91c-8.547,0 -15.5,-6.953 -15.5,-15.5v-51c0,-8.547 6.953,-15.5 15.5,-15.5h51c8.547,0 15.5,6.953 15.5,15.5v51c0,8.547 -6.953,15.5 -15.5,15.5z" fill="#f2f2f2"></path><path d="M75.5,15.5h-51c-4.971,0 -9,4.029 -9,9v51c0,4.971 4.029,9 9,9h51c4.971,0 9,-4.029 9,-9v-51c0,-4.971 -4.029,-9 -9,-9z" fill="#2785bd"></path><path d="M75.5,86h-51c-5.79,0 -10.5,-4.71 -10.5,-10.5v-51c0,-5.79 4.71,-10.5 10.5,-10.5h51c5.79,0 10.5,4.71 10.5,10.5v51c0,5.79 -4.71,10.5 -10.5,10.5zM24.5,17c-4.136,0 -7.5,3.364 -7.5,7.5v51c0,4.136 3.364,7.5 7.5,7.5h51c4.136,0 7.5,-3.364 7.5,-7.5v-51c0,-4.136 -3.364,-7.5 -7.5,-7.5z" fill="#181818"></path><g fill="#f2f2f2"><path d="M75.84,36.196l-14.075,13.804l14.073,13.802c0.095,-0.348 0.162,-0.706 0.162,-1.083v-25.438c0,-0.377 -0.067,-0.735 -0.16,-1.085zM55.81,49.744l16.911,-16.587c-0.356,-0.091 -0.722,-0.157 -1.106,-0.157h-43.23c-0.385,0 -0.75,0.066 -1.107,0.157l16.912,16.587c3.205,3.14 8.415,3.14 11.62,0zM50,56.42c-3.113,0 -6.21,-1.149 -8.624,-3.402l-14.097,13.825c0.356,0.091 0.722,0.157 1.106,0.157h43.229c0.385,0 0.75,-0.066 1.107,-0.157l-14.097,-13.825c-2.414,2.253 -5.511,3.402 -8.624,3.402zM24.16,36.196c-0.093,0.35 -0.16,0.708 -0.16,1.085v25.438c0,0.377 0.067,0.736 0.16,1.085l14.075,-13.804z"></path></g></g></g></svg>