<svg xmlns="http://www.w3.org/2000/svg" xmlns:xlink="http://www.w3.org/1999/xlink" viewBox="0,0,256,256" width="100px" height="100px" fill-rule="nonzero"><g fill="none" fill-rule="nonzero" stroke="none" stroke-width="1" stroke-linecap="butt" stroke-linejoin="miter" stroke-miterlimit="10" stroke-dasharray="" stroke-dashoffset="0" font-family="none" font-weight="none" font-size="none" text-anchor="none" style="mix-blend-mode: normal"><g transform="scale(2.56,2.56)"><path d="M23.5,93c-6.893,0 -12.5,-5.607 -12.5,-12.5v-57c0,-6.893 5.607,-12.5 12.5,-12.5h57c6.893,0 12.5,5.607 12.5,12.5v57c0,6.893 -5.607,12.5 -12.5,12.5z" fill="#000000" opacity="0.35"></path><path d="M21.5,91c-6.893,0 -12.5,-5.607 -12.5,-12.5v-57c0,-6.893 5.607,-12.5 12.5,-12.5h57c6.893,0 12.5,5.607 12.5,12.5v57c0,6.893 -5.607,12.5 -12.5,12.5z" fill="#f2f2f2"></path><path d="M15.5,78.5v-57c0,-3.314 2.686,-6 6,-6h57c3.314,0 6,2.686 6,6v57c0,3.314 -2.686,6 -6,6h-57c-3.314,0 -6,-2.686 -6,-6z" fill="#48acf0"></path><path d="M78.5,86h-57c-4.136,0 -7.5,-3.364 -7.5,-7.5v-57c0,-4.136 3.364,-7.5 7.5,-7.5h57c4.136,0 7.5,3.364 7.5,7.5v57c0,4.136 -3.364,7.5 -7.5,7.5zM21.5,17c-2.481,0 -4.5,2.019 -4.5,4.5v57c0,2.481 2.019,4.5 4.5,4.5h57c2.481,0 4.5,-2.019 4.5,-4.5v-57c0,-2.481 -2.019,-4.5 -4.5,-4.5z" fill="#1b1b1d"></path><rect x="29" y="41" width="9" height="30" fill="#f2f2f2"></rect><path d="M33.484,38h-0.049c-2.59,0 -4.265,-1.93 -4.265,-4.341c0,-2.463 1.727,-4.338 4.364,-4.338c2.64,0 4.267,1.875 4.315,4.338c0,2.409 -1.675,4.341 -4.365,4.341z" fill="#f2f2f2"></path><g fill="#f2f2f2"><path d="M70.99,71h-8.729v-16.248c0,-3.837 -2.139,-6.456 -5.573,-6.456c-2.62,0 -4.038,1.767 -4.726,3.474c-0.251,0.611 -0.176,2.301 -0.176,3.155v16.075h-8.729v-30.042h8.729v4.567c1.259,-1.948 3.23,-4.567 8.272,-4.567c6.247,0 10.931,3.928 10.931,12.699l0.001,17.343z"></path></g></g></g></svg>